<svg width="1016" height="505" viewBox="0 0 1016 505" fill="none" xmlns="http://www.w3.org/2000/svg">
<path d="M736.474 211.295C736.474 253.398 712.441 291.551 673.498 319.428C670.265 321.728 666.958 323.992 663.51 326.147C661.497 327.404 659.486 328.626 657.402 329.812C656.757 330.244 656.109 330.602 655.426 330.997C651.619 333.189 647.738 335.273 643.715 337.249C640.698 338.759 637.608 340.195 634.483 341.559C629.885 343.643 625.18 345.583 620.364 347.38C612.963 350.217 605.275 352.733 597.337 354.888C596.546 355.139 595.719 355.355 594.929 355.571C586.126 357.942 577.039 359.918 567.697 361.427C560.583 362.65 553.29 363.583 545.926 364.302C541.149 364.734 536.333 365.092 531.485 365.271C530.803 365.308 530.157 365.343 529.473 365.379C525.197 365.595 520.886 365.667 516.539 365.667H513.952C393.713 364.697 296.643 295.974 296.643 211.298C296.643 126.084 395.112 57 516.539 57C638.003 56.9977 736.474 126.082 736.474 211.295Z" fill="#922F49"/>
<path d="M661.566 211.309C661.566 239.072 645.719 264.229 620.04 282.61C617.908 284.127 615.73 285.618 613.455 287.04C612.129 287.869 610.801 288.674 609.427 289.457C609 289.742 608.575 289.979 608.125 290.238C605.613 291.684 603.056 293.058 600.402 294.36C598.412 295.355 596.374 296.302 594.313 297.203C591.28 298.577 588.178 299.856 585.003 301.04C580.123 302.91 575.054 304.569 569.818 305.991C569.296 306.157 568.752 306.299 568.23 306.442C562.426 308.006 556.434 309.307 550.274 310.304C545.584 311.11 540.775 311.726 535.918 312.2C532.768 312.484 529.592 312.721 526.394 312.838C525.944 312.861 525.519 312.886 525.068 312.909C522.249 313.052 519.407 313.098 516.539 313.098H514.834C435.551 312.459 371.545 267.142 371.545 211.311C371.545 155.122 436.475 109.57 516.539 109.57C596.638 109.568 661.566 155.119 661.566 211.309Z" fill="#EAACB7"/>
<path d="M554.062 182.402L616.54 226.318L625.26 225.187L564.39 182.402H554.062Z" fill="#5B3332"/>
<path d="M535 228.262L609.223 278.762L620 277.42L545.5 227.262L535 228.262Z" fill="#5B3332"/>
<path d="M563.393 147.836H572.474L533.348 312.762H524.268L563.393 147.836Z" fill="#5B3332"/>
<path d="M618.241 185.038L611.75 215.454L610.565 221.022L555.632 182.409L563.403 147.848L552.08 138.372L514.841 313.096H516.546C519.411 313.096 522.256 313.048 525.075 312.908C525.525 312.885 525.953 312.859 526.401 312.836L530.261 295.59L550.278 310.3C556.438 309.305 562.431 308.002 568.235 306.437C568.756 306.295 569.301 306.153 569.822 305.987L533.627 280.545L541.207 246.836L596.425 287.367L594.315 297.199C596.376 296.298 598.414 295.351 600.404 294.356C603.058 293.054 606.918 290.898 609.43 289.453L629.564 194.511L618.241 185.038ZM599.977 270.741L544.594 231.798L552.268 197.401L607.035 237.625L599.977 270.741Z" fill="#3D0301"/>
<path d="M638.637 194.515L620.042 282.612C617.91 284.128 615.732 285.62 613.457 287.042C612.131 287.871 610.803 288.675 609.429 289.459L629.564 194.517H638.637V194.515Z" fill="#5B3332"/>
<path d="M629.555 194.508L618.241 185.032H627.319L638.633 194.508H629.555Z" fill="#5B3332"/>
<path d="M563.393 147.836H572.474L561.16 138.36H552.08L563.393 147.836Z" fill="#5B3332"/>
<path d="M967.893 286.576L1012.32 147.413L906.511 138.461L739.174 269.162L723.462 308.914L876.607 328.159L865.87 362.054L861.541 375.64L938.947 383.009L954.222 338.266L990.736 340.141L1007.67 291.194L981.847 288.205L967.893 286.576ZM901.991 245.064L891.335 277.105L866.113 274.122L825.006 269.253L919.346 192.87L901.991 245.064Z" fill="#922F49"/>
<path d="M723.465 308.913L726.571 344.541L865.872 362.056L876.609 328.161L723.465 308.913ZM825.004 269.253L866.111 274.122L901.989 245.063L919.341 192.869L825.004 269.253ZM990.739 340.143L954.224 338.268L938.95 383.011L861.543 375.642L864.65 411.27L942.056 418.638L957.331 373.896L993.846 375.771L1010.78 326.826L1007.68 291.198L990.739 340.143ZM967.893 286.575L981.849 288.206L1015.43 183.04L1012.32 147.412L967.893 286.575Z" fill="#EAACB7"/>
<path d="M242.305 267.457L277.032 125.562L170.859 123.926L12.9313 265.853L0 306.593L154.107 315.234L145.732 349.789L142.35 363.642L220.08 365.657L232.235 319.968L268.793 319.322L282.317 269.325L256.344 268.123L242.305 267.457ZM173.699 230.588L165.276 263.286L139.91 262.05L98.5632 260.028L187.412 177.321L173.699 230.588Z" fill="#922F49"/>
<path d="M0 306.595L5.55577 341.924L145.732 349.791L154.107 315.237L0 306.595ZM98.5632 260.028L139.91 262.05L173.699 230.586L187.412 177.321L98.5632 260.028ZM268.791 319.322L232.232 319.968L220.078 365.657L142.348 363.642L147.901 398.969L225.631 400.984L237.786 355.294L274.344 354.649L287.868 304.651L282.312 269.322L268.791 319.322ZM242.305 267.457L256.342 268.121L282.588 160.889L277.035 125.56L242.305 267.457Z" fill="#EAACB7"/>
<path d="M378.69 405.6C379.457 406.933 379.89 408.55 379.99 410.45V410.5C379.99 410.733 379.99 410.967 379.99 411.2C379.99 411.4 379.973 411.6 379.94 411.8C379.74 413.4 379.207 414.867 378.34 416.2C377.507 417.533 376.457 418.667 375.19 419.6C373.923 420.533 372.523 421.217 370.99 421.65C369.457 422.05 367.89 422.117 366.29 421.85C366.323 422.317 366.34 422.783 366.34 423.25C366.34 423.683 366.34 424.333 366.34 425.2C366.34 426.033 366.34 427.167 366.34 428.6C366.373 430.033 366.423 431.967 366.49 434.4V434.45C366.457 434.45 366.423 434.467 366.39 434.5C366.39 434.5 366.373 434.5 366.34 434.5C365.873 434.633 365.273 434.733 364.54 434.8C363.84 434.833 363.09 434.867 362.29 434.9C361.523 434.9 360.757 434.883 359.99 434.85C359.223 434.817 358.557 434.767 357.99 434.7C357.89 432.267 357.84 429.633 357.84 426.8C357.84 423.933 357.84 421 357.84 418C357.84 415 357.823 411.983 357.79 408.95C357.79 405.917 357.74 403.017 357.64 400.25C359.007 399.883 360.49 399.617 362.09 399.45C363.723 399.283 365.34 399.267 366.94 399.4C368.573 399.533 370.157 399.833 371.69 400.3C373.223 400.733 374.573 401.4 375.74 402.3C376.94 403.167 377.923 404.267 378.69 405.6ZM372.24 409.35C372.007 408.95 371.673 408.617 371.24 408.35C370.407 407.683 369.44 407.267 368.34 407.1C367.24 406.9 366.157 406.933 365.09 407.2C365.023 407.2 364.973 407.217 364.94 407.25C364.973 407.85 364.973 408.483 364.94 409.15C364.94 409.817 364.94 410.483 364.94 411.15C364.973 411.817 365.007 412.467 365.04 413.1C365.107 413.7 365.223 414.25 365.39 414.75H365.54C366.073 414.717 366.64 414.7 367.24 414.7C367.84 414.667 368.423 414.617 368.99 414.55C369.59 414.483 370.157 414.367 370.69 414.2C371.257 414 371.74 413.7 372.14 413.3C372.407 412.933 372.59 412.517 372.69 412.05C372.823 411.583 372.84 411.117 372.74 410.65C372.673 410.183 372.507 409.75 372.24 409.35ZM395.85 415.15C396.083 416.117 396.266 416.883 396.4 417.45L400.15 434.95V435C399.15 435.2 398.05 435.267 396.85 435.2C395.65 435.167 394.516 435.033 393.45 434.8H393.4C393.2 434.267 393 433.633 392.8 432.9C392.633 432.167 392.45 431.417 392.25 430.65C392.083 429.883 391.9 429.15 391.7 428.45C391.5 427.75 391.283 427.15 391.05 426.65C390.616 426.583 390.283 426.55 390.05 426.55C389.816 426.55 389.6 426.55 389.4 426.55C389.233 426.55 389.033 426.567 388.8 426.6C388.6 426.6 388.316 426.6 387.95 426.6C387.716 427.133 387.516 427.767 387.35 428.5C387.216 429.2 387.066 429.95 386.9 430.75C386.766 431.517 386.616 432.267 386.45 433C386.283 433.733 386.05 434.383 385.75 434.95C385.716 434.95 385.683 434.967 385.65 435C385.65 435 385.633 435 385.6 435C385.333 435.067 384.666 435.067 383.6 435C382.533 434.933 380.866 434.917 378.6 434.95C378.566 434.95 378.533 434.933 378.5 434.9C378.566 434.667 378.683 434.017 378.85 432.95C379.016 431.883 379.25 430.5 379.55 428.8C379.85 427.1 380.2 425.15 380.6 422.95C381.033 420.717 381.533 418.35 382.1 415.85C382.666 413.35 383.283 410.75 383.95 408.05C384.616 405.35 385.35 402.667 386.15 400C386.383 399.967 386.633 399.95 386.9 399.95C387.166 399.95 387.516 399.95 387.95 399.95C388.383 399.95 388.933 399.95 389.6 399.95C390.3 399.917 391.2 399.85 392.3 399.75C392.4 400.183 392.55 400.85 392.75 401.75C392.983 402.617 393.216 403.617 393.45 404.75C393.716 405.85 393.983 407.033 394.25 408.3C394.55 409.567 394.833 410.783 395.1 411.95C395.366 413.117 395.616 414.183 395.85 415.15ZM389.4 420.75C390.033 420.717 390.666 420.7 391.3 420.7C390.966 417.833 390.666 415.6 390.4 414C390.166 412.4 389.95 411.317 389.75 410.75C389.583 410.183 389.4 410.067 389.2 410.4C389.033 410.7 388.866 411.333 388.7 412.3C388.566 413.267 388.4 414.483 388.2 415.95C388.033 417.417 387.833 419 387.6 420.7C388.166 420.733 388.766 420.75 389.4 420.75ZM411.59 417.65C411.59 417.65 411.623 417.633 411.69 417.6C412.123 417.333 412.823 417.183 413.79 417.15C414.79 417.083 415.84 417.067 416.94 417.1C418.04 417.133 419.057 417.2 419.99 417.3C420.957 417.367 421.607 417.4 421.94 417.4H422.04L422.09 417.45C422.29 419.217 422.423 421.1 422.49 423.1C422.557 425.067 422.423 426.95 422.09 428.75C421.923 430.45 421.407 431.75 420.54 432.65C419.673 433.55 418.607 434.233 417.34 434.7C416.507 434.933 415.64 435.133 414.74 435.3C413.84 435.5 412.923 435.633 411.99 435.7C411.057 435.8 410.14 435.8 409.24 435.7C408.373 435.6 407.54 435.383 406.74 435.05C405.407 434.483 404.39 433.717 403.69 432.75C402.99 431.783 402.44 430.583 402.04 429.15C401.94 428.783 401.823 428.283 401.69 427.65C401.59 426.983 401.507 426.317 401.44 425.65C401.34 424.583 401.257 423.617 401.19 422.75C401.123 421.883 401.057 421.033 400.99 420.2C400.957 419.333 400.923 418.433 400.89 417.5C400.89 416.533 400.907 415.433 400.94 414.2C400.973 413.133 401.023 412.05 401.09 410.95C401.157 409.817 401.273 408.717 401.44 407.65C401.607 406.55 401.89 405.483 402.29 404.45C402.723 403.417 403.423 402.567 404.39 401.9C405.057 401.333 405.807 400.917 406.64 400.65C407.473 400.383 408.34 400.183 409.24 400.05C411.073 399.817 412.823 399.883 414.49 400.25C416.157 400.583 417.59 401.2 418.79 402.1C419.99 403 420.89 404.2 421.49 405.7C422.09 407.167 422.273 408.917 422.04 410.95L421.99 411.25C421.923 411.35 421.773 411.4 421.54 411.4C421.307 411.4 420.923 411.417 420.39 411.45C419.89 411.45 419.457 411.467 419.09 411.5C418.757 411.5 418.407 411.5 418.04 411.5C417.707 411.5 417.357 411.483 416.99 411.45C416.623 411.417 416.19 411.367 415.69 411.3C415.59 410.967 415.44 410.567 415.24 410.1C415.073 409.6 414.84 409.15 414.54 408.75C414.273 408.317 413.957 407.95 413.59 407.65C413.223 407.317 412.79 407.15 412.29 407.15C411.723 407.117 411.173 407.1 410.64 407.1C410.107 407.1 409.64 407.3 409.24 407.7C409.173 407.767 409.073 407.95 408.94 408.25C408.84 408.517 408.757 408.783 408.69 409.05C408.457 409.85 408.257 410.817 408.09 411.95C407.957 413.083 407.857 414.3 407.79 415.6C407.723 416.867 407.707 418.183 407.74 419.55C407.773 420.917 407.84 422.217 407.94 423.45C408.007 424.183 408.14 424.983 408.34 425.85C408.54 426.717 408.957 427.4 409.59 427.9C409.89 428.1 410.273 428.25 410.74 428.35C411.24 428.417 411.757 428.4 412.29 428.3C412.857 428.2 413.373 428.067 413.84 427.9C414.207 427.733 414.523 427.517 414.79 427.25C415.057 426.95 415.257 426.567 415.39 426.1C415.423 425.967 415.457 425.75 415.49 425.45C415.557 425.117 415.59 424.783 415.59 424.45C415.623 424.117 415.623 423.817 415.59 423.55C415.59 423.283 415.54 423.133 415.44 423.1C415.24 423.067 414.957 423.067 414.59 423.1C414.257 423.1 413.89 423.117 413.49 423.15C413.123 423.15 412.773 423.15 412.44 423.15C412.14 423.117 411.907 423.067 411.74 423C411.673 422.467 411.623 422 411.59 421.6C411.59 421.2 411.59 420.817 411.59 420.45C411.623 420.05 411.64 419.65 411.64 419.25C411.64 418.85 411.607 418.35 411.54 417.75V417.7C411.54 417.667 411.557 417.65 411.59 417.65ZM440.162 428.15C442.296 428.25 444.496 428.267 446.762 428.2V428.3C446.829 429.367 446.846 430.483 446.812 431.65C446.779 432.783 446.629 433.85 446.362 434.85C442.962 434.817 439.496 434.867 435.962 435C432.462 435.1 429.096 435.017 425.862 434.75C425.862 431.85 425.829 428.983 425.762 426.15C425.696 423.283 425.646 420.433 425.612 417.6C425.579 414.767 425.579 411.933 425.612 409.1C425.646 406.267 425.746 403.417 425.912 400.55C427.212 400.483 428.612 400.433 430.112 400.4C431.646 400.333 433.179 400.283 434.712 400.25C436.246 400.217 437.729 400.183 439.162 400.15C440.596 400.117 441.862 400.1 442.962 400.1C444.062 400.1 444.946 400.117 445.612 400.15C446.279 400.183 446.612 400.217 446.612 400.25C446.779 401.417 446.812 402.6 446.712 403.8C446.646 405 446.612 406.183 446.612 407.35V407.4C445.546 407.633 444.462 407.783 443.362 407.85C442.296 407.883 441.212 407.9 440.112 407.9C439.012 407.867 437.912 407.85 436.812 407.85C435.712 407.85 434.612 407.9 433.512 408H433.362L433.312 408.05C433.346 409.017 433.296 410.017 433.162 411.05C433.062 412.05 433.129 413 433.362 413.9L433.412 413.95C434.412 414.017 435.429 414.05 436.462 414.05C437.496 414.05 438.529 414.067 439.562 414.1V414.15C439.729 415.283 439.779 416.417 439.712 417.55C439.646 418.683 439.629 419.867 439.662 421.1C439.162 421.233 438.596 421.317 437.962 421.35C437.329 421.35 436.712 421.35 436.112 421.35C435.546 421.35 435.029 421.367 434.562 421.4C434.096 421.433 433.779 421.517 433.612 421.65C433.446 422.617 433.379 423.7 433.412 424.9C433.479 426.1 433.546 427.1 433.612 427.9L433.662 427.95C435.862 427.95 438.029 428.017 440.162 428.15ZM480.094 435.15C479.861 435.217 479.461 435.25 478.894 435.25C478.228 435.25 477.461 435.2 476.594 435.1C475.728 435.033 474.961 435 474.294 435C473.194 432.533 472.094 430.15 470.994 427.85C469.928 425.517 469.011 423.283 468.244 421.15L467.744 419.65C467.611 419.283 467.478 418.95 467.344 418.65C467.244 418.317 467.161 418.15 467.094 418.15C467.061 418.15 467.011 418.55 466.944 419.35C466.911 420.15 466.878 421.167 466.844 422.4C466.811 423.633 466.778 425 466.744 426.5C466.744 428 466.744 429.45 466.744 430.85C466.744 431.617 466.744 432.367 466.744 433.1C466.744 433.8 466.761 434.433 466.794 435C466.428 435.1 466.061 435.167 465.694 435.2C465.328 435.233 464.961 435.25 464.594 435.25C463.794 435.25 462.978 435.2 462.144 435.1C461.344 435 460.561 434.95 459.794 434.95V431.45C459.794 428.283 459.761 425.267 459.694 422.4C459.661 419.533 459.644 416.533 459.644 413.4C459.644 411.1 459.678 408.833 459.744 406.6C459.811 404.333 459.928 402.133 460.094 400C460.428 399.933 460.778 399.883 461.144 399.85C461.544 399.817 461.944 399.8 462.344 399.8C462.544 399.8 462.878 399.817 463.344 399.85C463.811 399.85 464.278 399.883 464.744 399.95C465.211 399.983 465.611 400.033 465.944 400.1C466.311 400.167 466.494 400.233 466.494 400.3C466.728 400.9 466.944 401.4 467.144 401.8C467.344 402.2 467.528 402.583 467.694 402.95C467.894 403.317 468.094 403.733 468.294 404.2C468.528 404.633 468.794 405.2 469.094 405.9C469.161 406.067 469.311 406.383 469.544 406.85C469.778 407.317 470.044 407.867 470.344 408.5C470.644 409.1 470.961 409.75 471.294 410.45C471.628 411.117 471.928 411.733 472.194 412.3C472.494 412.833 472.744 413.3 472.944 413.7C473.144 414.067 473.261 414.25 473.294 414.25C473.394 414.183 473.478 413.85 473.544 413.25C473.611 412.65 473.644 412.067 473.644 411.5C473.644 410.167 473.611 408.933 473.544 407.8C473.511 406.633 473.494 405.45 473.494 404.25C473.494 403.55 473.494 402.85 473.494 402.15C473.528 401.417 473.561 400.633 473.594 399.8C474.728 399.6 475.928 399.5 477.194 399.5C478.428 399.5 479.528 399.6 480.494 399.8V415.9C480.528 417.3 480.544 418.717 480.544 420.15C480.544 421.583 480.544 423.017 480.544 424.45C480.544 425.417 480.528 426.35 480.494 427.25C480.494 428.15 480.494 429.067 480.494 430C480.494 430.667 480.494 431.333 480.494 432C480.528 432.667 480.544 433.333 480.544 434V435C480.478 435.033 480.328 435.083 480.094 435.15ZM502.397 402.35C503.363 403.217 504.047 404.233 504.447 405.4C504.68 405.9 504.847 406.417 504.947 406.95C505.08 407.45 505.18 407.967 505.247 408.5C505.313 409.333 505.347 410.167 505.347 411C505.38 411.8 505.38 412.617 505.347 413.45C505.247 415.217 505.213 416.933 505.247 418.6C505.28 420.267 505.23 421.967 505.097 423.7L504.947 425.35C504.88 426.517 504.697 427.7 504.397 428.9C504.097 430.067 503.647 431.133 503.047 432.1C502.48 432.9 501.73 433.55 500.797 434.05C499.897 434.517 498.93 434.883 497.897 435.15C496.963 435.417 496.013 435.583 495.047 435.65C494.113 435.717 493.163 435.717 492.197 435.65C491.497 435.583 490.813 435.483 490.147 435.35C489.513 435.25 488.897 435.067 488.297 434.8C487.73 434.533 487.213 434.2 486.747 433.8C486.28 433.367 485.897 432.817 485.597 432.15C485.13 431.317 484.813 430.433 484.647 429.5C484.513 428.533 484.43 427.567 484.397 426.6C484.297 424 484.18 421.4 484.047 418.8C483.947 416.167 483.98 413.533 484.147 410.9C484.18 409.4 484.363 407.9 484.697 406.4C485.063 404.867 485.763 403.517 486.797 402.35C487.13 402.017 487.513 401.717 487.947 401.45C489.047 400.917 490.23 400.533 491.497 400.3C492.797 400.033 494.08 399.933 495.347 400C496.647 400.067 497.897 400.3 499.097 400.7C500.33 401.067 501.43 401.617 502.397 402.35ZM499.097 420V417.6L498.997 414.2C498.997 414.167 498.963 413.833 498.897 413.2C498.863 412.533 498.83 411.917 498.797 411.35C498.73 410.417 498.463 409.567 497.997 408.8C497.563 408.033 496.963 407.467 496.197 407.1C495.53 406.833 494.847 406.783 494.147 406.95C493.447 407.117 492.83 407.4 492.297 407.8C491.13 408.7 490.347 409.85 489.947 411.25C489.68 412.517 489.513 413.85 489.447 415.25C489.413 416.65 489.43 418.05 489.497 419.45C489.663 420.617 489.78 421.817 489.847 423.05C489.913 424.25 490.113 425.4 490.447 426.5C490.78 427.167 491.263 427.683 491.897 428.05C492.53 428.417 493.213 428.633 493.947 428.7C494.68 428.733 495.413 428.633 496.147 428.4C496.88 428.133 497.497 427.717 497.997 427.15C498.297 426.75 498.513 426.433 498.647 426.2C498.78 425.933 498.863 425.65 498.897 425.35C498.93 425.05 498.93 424.7 498.897 424.3C498.897 423.867 498.93 423.3 498.997 422.6C499.03 421.933 499.047 421.35 499.047 420.85C499.08 420.35 499.097 420.067 499.097 420ZM517.767 399.75C521.4 399.717 524.933 399.883 528.367 400.25C528.433 401.35 528.45 402.617 528.417 404.05C528.417 405.483 528.333 406.8 528.167 408C527.533 407.867 526.75 407.817 525.817 407.85C524.883 407.883 523.633 407.933 522.067 408H521.967H521.917C521.917 408.033 521.9 408.067 521.867 408.1C521.867 408.1 521.867 408.117 521.867 408.15C521.833 408.317 521.8 408.583 521.767 408.95C521.767 409.283 521.767 409.833 521.767 410.6C521.767 411.333 521.767 412.317 521.767 413.55C521.8 414.75 521.833 416.317 521.867 418.25C521.9 420.15 521.933 422.45 521.967 425.15C522 427.817 522.05 430.967 522.117 434.6V434.65V434.7C521.517 434.8 520.85 434.867 520.117 434.9C519.417 434.9 518.7 434.9 517.967 434.9C517.267 434.9 516.567 434.9 515.867 434.9C515.167 434.9 514.517 434.95 513.917 435.05C513.883 434.917 513.883 434.317 513.917 433.25C513.95 432.183 513.967 430.6 513.967 428.5C514 426.367 513.983 423.65 513.917 420.35C513.883 417.05 513.767 413.067 513.567 408.4L513.517 408.35C513.117 408.15 512.617 408.033 512.017 408C511.417 407.933 510.817 407.9 510.217 407.9C509.617 407.867 509.067 407.85 508.567 407.85C508.067 407.85 507.717 407.817 507.517 407.75C507.45 407.617 507.383 407.283 507.317 406.75C507.283 406.217 507.25 405.583 507.217 404.85C507.217 404.083 507.217 403.267 507.217 402.4C507.217 401.533 507.25 400.7 507.317 399.9C507.317 399.867 507.3 399.85 507.267 399.85C507.267 399.85 507.267 399.833 507.267 399.8C510.667 399.767 514.167 399.75 517.767 399.75ZM555.865 421.85C555.865 421.917 555.815 421.95 555.715 421.95C554.682 422.117 553.599 422.25 552.465 422.35C551.365 422.417 550.315 422.533 549.315 422.7H549.265C549.099 424.8 548.999 426.9 548.965 429C548.932 431.067 548.899 433.05 548.865 434.95C548.199 435.017 547.399 435.067 546.465 435.1C545.565 435.133 544.665 435.15 543.765 435.15C542.865 435.15 542.065 435.133 541.365 435.1C540.699 435.067 540.299 435.017 540.165 434.95L540.115 434.9C540.115 432.9 540.115 431.033 540.115 429.3C540.115 427.533 540.115 425.833 540.115 424.2C540.149 422.567 540.165 420.933 540.165 419.3C540.165 417.633 540.165 415.883 540.165 414.05C540.199 412.217 540.215 410.25 540.215 408.15C540.215 406.017 540.215 403.65 540.215 401.05V401C540.782 400.9 541.599 400.8 542.665 400.7C543.732 400.6 544.932 400.5 546.265 400.4C547.632 400.3 549.065 400.233 550.565 400.2C552.099 400.133 553.599 400.117 555.065 400.15C556.532 400.15 557.915 400.217 559.215 400.35C560.515 400.483 561.632 400.667 562.565 400.9C562.565 401.333 562.565 401.883 562.565 402.55C562.599 403.217 562.615 403.917 562.615 404.65C562.615 405.35 562.615 406.033 562.615 406.7C562.615 407.333 562.599 407.867 562.565 408.3C561.665 408.367 560.649 408.433 559.515 408.5C558.415 408.567 557.265 408.633 556.065 408.7C554.899 408.733 553.715 408.783 552.515 408.85C551.349 408.917 550.249 409 549.215 409.1C548.849 409.967 548.699 410.8 548.765 411.6C548.832 412.4 549.015 413.067 549.315 413.6C549.349 413.633 549.382 413.65 549.415 413.65C549.882 413.717 550.399 413.767 550.965 413.8C551.565 413.8 552.149 413.8 552.715 413.8C553.282 413.8 553.832 413.783 554.365 413.75C554.899 413.717 555.349 413.683 555.715 413.65C555.815 413.883 555.865 414.333 555.865 415C555.899 415.667 555.899 416.417 555.865 417.25C555.832 418.05 555.799 418.867 555.765 419.7C555.765 420.533 555.799 421.25 555.865 421.85ZM582.572 402.35C583.539 403.217 584.222 404.233 584.622 405.4C584.856 405.9 585.022 406.417 585.122 406.95C585.256 407.45 585.356 407.967 585.422 408.5C585.489 409.333 585.522 410.167 585.522 411C585.556 411.8 585.556 412.617 585.522 413.45C585.422 415.217 585.389 416.933 585.422 418.6C585.456 420.267 585.406 421.967 585.272 423.7L585.122 425.35C585.056 426.517 584.872 427.7 584.572 428.9C584.272 430.067 583.822 431.133 583.222 432.1C582.656 432.9 581.906 433.55 580.972 434.05C580.072 434.517 579.106 434.883 578.072 435.15C577.139 435.417 576.189 435.583 575.222 435.65C574.289 435.717 573.339 435.717 572.372 435.65C571.672 435.583 570.989 435.483 570.322 435.35C569.689 435.25 569.072 435.067 568.472 434.8C567.906 434.533 567.389 434.2 566.922 433.8C566.456 433.367 566.072 432.817 565.772 432.15C565.306 431.317 564.989 430.433 564.822 429.5C564.689 428.533 564.606 427.567 564.572 426.6C564.472 424 564.356 421.4 564.222 418.8C564.122 416.167 564.156 413.533 564.322 410.9C564.356 409.4 564.539 407.9 564.872 406.4C565.239 404.867 565.939 403.517 566.972 402.35C567.306 402.017 567.689 401.717 568.122 401.45C569.222 400.917 570.406 400.533 571.672 400.3C572.972 400.033 574.256 399.933 575.522 400C576.822 400.067 578.072 400.3 579.272 400.7C580.506 401.067 581.606 401.617 582.572 402.35ZM579.272 420V417.6L579.172 414.2C579.172 414.167 579.139 413.833 579.072 413.2C579.039 412.533 579.006 411.917 578.972 411.35C578.906 410.417 578.639 409.567 578.172 408.8C577.739 408.033 577.139 407.467 576.372 407.1C575.706 406.833 575.022 406.783 574.322 406.95C573.622 407.117 573.006 407.4 572.472 407.8C571.306 408.7 570.522 409.85 570.122 411.25C569.856 412.517 569.689 413.85 569.622 415.25C569.589 416.65 569.606 418.05 569.672 419.45C569.839 420.617 569.956 421.817 570.022 423.05C570.089 424.25 570.289 425.4 570.622 426.5C570.956 427.167 571.439 427.683 572.072 428.05C572.706 428.417 573.389 428.633 574.122 428.7C574.856 428.733 575.589 428.633 576.322 428.4C577.056 428.133 577.672 427.717 578.172 427.15C578.472 426.75 578.689 426.433 578.822 426.2C578.956 425.933 579.039 425.65 579.072 425.35C579.106 425.05 579.106 424.7 579.072 424.3C579.072 423.867 579.106 423.3 579.172 422.6C579.206 421.933 579.222 421.35 579.222 420.85C579.256 420.35 579.272 420.067 579.272 420ZM608.842 401.1C609.476 401.167 609.992 401.317 610.392 401.55C610.592 405.817 610.659 410.133 610.592 414.5C610.526 418.833 610.259 423.15 609.792 427.45C609.526 429.65 608.692 431.517 607.292 433.05C605.892 434.583 603.992 435.467 601.592 435.7C600.192 435.833 598.742 435.767 597.242 435.5C595.742 435.267 594.376 434.833 593.142 434.2C591.942 433.533 590.926 432.667 590.092 431.6C589.292 430.5 588.859 429.183 588.792 427.65C588.792 423.25 588.842 418.817 588.942 414.35C589.042 409.883 589.059 405.45 588.992 401.05L588.942 401H588.992C589.492 401 590.042 400.983 590.642 400.95C591.276 400.917 591.909 400.9 592.542 400.9C593.176 400.9 593.792 400.933 594.392 401C594.992 401.033 595.542 401.117 596.042 401.25V401.3C595.676 409.367 595.826 417.55 596.492 425.85C596.726 426.65 597.142 427.233 597.742 427.6C598.376 427.967 599.026 428.133 599.692 428.1C600.359 428.067 600.976 427.833 601.542 427.4C602.109 426.967 602.476 426.367 602.642 425.6C602.809 421.6 602.892 417.533 602.892 413.4C602.926 409.267 602.992 405.267 603.092 401.4C603.526 401.367 604.076 401.317 604.742 401.25C605.442 401.15 606.142 401.083 606.842 401.05C607.542 401.017 608.209 401.033 608.842 401.1ZM634.587 435.15C634.353 435.217 633.953 435.25 633.387 435.25C632.72 435.25 631.953 435.2 631.087 435.1C630.22 435.033 629.453 435 628.787 435C627.687 432.533 626.587 430.15 625.487 427.85C624.42 425.517 623.503 423.283 622.737 421.15L622.237 419.65C622.103 419.283 621.97 418.95 621.837 418.65C621.737 418.317 621.653 418.15 621.587 418.15C621.553 418.15 621.503 418.55 621.437 419.35C621.403 420.15 621.37 421.167 621.337 422.4C621.303 423.633 621.27 425 621.237 426.5C621.237 428 621.237 429.45 621.237 430.85C621.237 431.617 621.237 432.367 621.237 433.1C621.237 433.8 621.253 434.433 621.287 435C620.92 435.1 620.553 435.167 620.187 435.2C619.82 435.233 619.453 435.25 619.087 435.25C618.287 435.25 617.47 435.2 616.637 435.1C615.837 435 615.053 434.95 614.287 434.95V431.45C614.287 428.283 614.253 425.267 614.187 422.4C614.153 419.533 614.137 416.533 614.137 413.4C614.137 411.1 614.17 408.833 614.237 406.6C614.303 404.333 614.42 402.133 614.587 400C614.92 399.933 615.27 399.883 615.637 399.85C616.037 399.817 616.437 399.8 616.837 399.8C617.037 399.8 617.37 399.817 617.837 399.85C618.303 399.85 618.77 399.883 619.237 399.95C619.703 399.983 620.103 400.033 620.437 400.1C620.803 400.167 620.987 400.233 620.987 400.3C621.22 400.9 621.437 401.4 621.637 401.8C621.837 402.2 622.02 402.583 622.187 402.95C622.387 403.317 622.587 403.733 622.787 404.2C623.02 404.633 623.287 405.2 623.587 405.9C623.653 406.067 623.803 406.383 624.037 406.85C624.27 407.317 624.537 407.867 624.837 408.5C625.137 409.1 625.453 409.75 625.787 410.45C626.12 411.117 626.42 411.733 626.687 412.3C626.987 412.833 627.237 413.3 627.437 413.7C627.637 414.067 627.753 414.25 627.787 414.25C627.887 414.183 627.97 413.85 628.037 413.25C628.103 412.65 628.137 412.067 628.137 411.5C628.137 410.167 628.103 408.933 628.037 407.8C628.003 406.633 627.987 405.45 627.987 404.25C627.987 403.55 627.987 402.85 627.987 402.15C628.02 401.417 628.053 400.633 628.087 399.8C629.22 399.6 630.42 399.5 631.687 399.5C632.92 399.5 634.02 399.6 634.987 399.8V415.9C635.02 417.3 635.037 418.717 635.037 420.15C635.037 421.583 635.037 423.017 635.037 424.45C635.037 425.417 635.02 426.35 634.987 427.25C634.987 428.15 634.987 429.067 634.987 430C634.987 430.667 634.987 431.333 634.987 432C635.02 432.667 635.037 433.333 635.037 434V435C634.97 435.033 634.82 435.083 634.587 435.15ZM654.339 401.55C655.339 402.317 656.139 403.183 656.739 404.15C657.472 405.283 658.072 406.467 658.539 407.7C659.039 408.9 659.439 410.167 659.739 411.5C659.906 412.033 660.006 412.567 660.039 413.1C660.106 413.6 660.156 414.117 660.189 414.65C660.122 416.217 660.056 417.8 659.989 419.4C659.956 420.967 659.789 422.517 659.489 424.05C659.489 424.083 659.472 424.1 659.439 424.1C659.439 424.1 659.439 424.117 659.439 424.15C658.772 426.117 657.856 427.983 656.689 429.75C655.556 431.517 654.356 433.183 653.089 434.75C650.889 434.817 648.672 434.867 646.439 434.9C644.206 434.9 642.039 434.9 639.939 434.9C639.939 434.9 639.922 434.917 639.889 434.95C639.522 432.317 639.289 429.6 639.189 426.8C639.089 423.967 639.039 421.1 639.039 418.2C639.039 415.3 639.056 412.383 639.089 409.45C639.156 406.483 639.156 403.55 639.089 400.65C639.122 400.617 639.139 400.583 639.139 400.55C639.172 400.517 639.206 400.483 639.239 400.45C640.172 400.217 641.139 400.067 642.139 400C643.172 399.9 644.206 399.867 645.239 399.9C646.272 399.9 647.289 399.917 648.289 399.95C649.322 399.983 650.322 399.983 651.289 399.95C652.356 400.217 653.372 400.75 654.339 401.55ZM651.439 423.2C651.706 422.9 651.939 422.6 652.139 422.3C652.706 421.433 653.106 420.483 653.339 419.45C653.606 418.417 653.606 417.283 653.339 416.05C653.239 415.55 653.122 415.033 652.989 414.5C652.856 413.933 652.656 413.4 652.389 412.9C652.156 412.4 651.856 411.967 651.489 411.6C651.122 411.2 650.656 410.9 650.089 410.7C649.522 410.633 648.906 410.6 648.239 410.6C647.572 410.567 646.939 410.617 646.339 410.75H646.239H646.189V410.95C646.256 411.85 646.289 412.817 646.289 413.85C646.289 414.883 646.272 415.967 646.239 417.1C646.206 418.2 646.189 419.333 646.189 420.5C646.189 421.633 646.222 422.767 646.289 423.9C646.656 424.233 647.156 424.383 647.789 424.35C648.456 424.317 649.089 424.267 649.689 424.2C649.856 424.233 650.006 424.217 650.139 424.15C650.272 424.05 650.422 423.967 650.589 423.9C650.922 423.7 651.206 423.467 651.439 423.2Z" fill="#3D0301"/>
</svg>
